<svg width="52" height="52" viewBox="0 0 52 52" fill="none" xmlns="http://www.w3.org/2000/svg">
<rect width="52" height="52" rx="8" fill="#010101"/>
<path d="M30.6667 21.3333C32.5232 21.3333 34.3037 22.0708 35.6164 23.3836C36.9292 24.6964 37.6667 26.4768 37.6667 28.3333V36.5H33V28.3333C33 27.7145 32.7542 27.121 32.3166 26.6834C31.879 26.2458 31.2855 26 30.6667 26C30.0478 26 29.4543 26.2458 29.0168 26.6834C28.5792 27.121 28.3333 27.7145 28.3333 28.3333V36.5H23.6667V28.3333C23.6667 26.4768 24.4042 24.6964 25.7169 23.3836C27.0297 22.0708 28.8102 21.3333 30.6667 21.3333Z" stroke="#F8F6FF" stroke-width="2" stroke-linecap="round" stroke-linejoin="round"/>
<path d="M19 22.5H14.3333V36.5H19V22.5Z" stroke="#F8F6FF" stroke-width="2" stroke-linecap="round" stroke-linejoin="round"/>
<path d="M16.6667 19C17.9553 19 19 17.9553 19 16.6667C19 15.378 17.9553 14.3333 16.6667 14.3333C15.378 14.3333 14.3333 15.378 14.3333 16.6667C14.3333 17.9553 15.378 19 16.6667 19Z" stroke="#F8F6FF" stroke-width="2" stroke-linecap="round" stroke-linejoin="round"/>
</svg>
