<svg width="52" height="52" viewBox="0 0 52 52" fill="none" xmlns="http://www.w3.org/2000/svg">
<rect width="52" height="52" rx="8" fill="#010101"/>
<path d="M38.2967 19.49C38.1581 18.9363 37.8758 18.429 37.4784 18.0193C37.081 17.6096 36.5825 17.312 36.0333 17.1567C34.0267 16.6667 26 16.6667 26 16.6667C26 16.6667 17.9733 16.6667 15.9667 17.2033C15.4174 17.3587 14.919 17.6563 14.5216 18.066C14.1242 18.4757 13.8419 18.983 13.7033 19.5367C13.3361 21.5731 13.1564 23.639 13.1667 25.7083C13.1536 27.7932 13.3332 29.8748 13.7033 31.9267C13.8561 32.4631 14.1447 32.9512 14.5412 33.3435C14.9376 33.7359 15.4286 34.0194 15.9667 34.1667C17.9733 34.7033 26 34.7033 26 34.7033C26 34.7033 34.0267 34.7033 36.0333 34.1667C36.5825 34.0113 37.081 33.7137 37.4784 33.304C37.8758 32.8943 38.1581 32.387 38.2967 31.8333C38.6611 29.8122 38.8407 27.762 38.8333 25.7083C38.8464 23.6234 38.6668 21.5418 38.2967 19.49Z" stroke="#F8F6FF" stroke-width="2" stroke-linecap="round" stroke-linejoin="round"/>
<path d="M23.375 29.5233L30.0833 25.7083L23.375 21.8933V29.5233Z" stroke="#F8F6FF" stroke-width="2" stroke-linecap="round" stroke-linejoin="round"/>
</svg>
