<svg width="52" height="52" viewBox="0 0 52 52" fill="none" xmlns="http://www.w3.org/2000/svg">
<rect width="52" height="52" rx="8" fill="#010101"/>
<path d="M31.8333 14.3333H20.1667C16.945 14.3333 14.3333 16.945 14.3333 20.1667V31.8333C14.3333 35.055 16.945 37.6667 20.1667 37.6667H31.8333C35.055 37.6667 37.6667 35.055 37.6667 31.8333V20.1667C37.6667 16.945 35.055 14.3333 31.8333 14.3333Z" stroke="#F8F6FF" stroke-width="2" stroke-linecap="round" stroke-linejoin="round"/>
<path d="M30.6667 25.265C30.8106 26.2359 30.6448 27.2276 30.1927 28.0988C29.7406 28.9701 29.0253 29.6766 28.1486 30.1179C27.2718 30.5592 26.2782 30.7128 25.3091 30.5569C24.34 30.401 23.4447 29.9434 22.7506 29.2493C22.0566 28.5553 21.599 27.66 21.4431 26.6909C21.2871 25.7218 21.4407 24.7282 21.882 23.8514C22.3234 22.9746 23.0299 22.2593 23.9011 21.8073C24.7724 21.3552 25.764 21.1893 26.735 21.3333C27.7254 21.4802 28.6423 21.9417 29.3503 22.6497C30.0583 23.3577 30.5198 24.2746 30.6667 25.265Z" stroke="#F8F6FF" stroke-width="2" stroke-linecap="round" stroke-linejoin="round"/>
<path d="M32.4167 19.5833H32.4283" stroke="#F8F6FF" stroke-width="2" stroke-linecap="round" stroke-linejoin="round"/>
</svg>
